<svg width="22" height="18" viewBox="0 0 22 18" fill="none" xmlns="http://www.w3.org/2000/svg">
<path d="M11 10.9163L2.80228 17.6236C2.49556 17.8745 2.1052 18 1.63118 18C1.15716 18 0.766793 17.8745 0.460075 17.6236C0.153358 17.3726 0 17.0532 0 16.6654C0 16.2776 0.153358 15.9582 0.460075 15.7072L8.65779 9L0.460075 2.29278C0.153358 2.04182 0 1.72243 0 1.3346C0 0.946768 0.153358 0.627376 0.460075 0.376425C0.766793 0.125475 1.15716 0 1.63118 0C2.1052 0 2.49556 0.125475 2.80228 0.376425L11 7.08365L19.1977 0.376425C19.5044 0.125475 19.8948 0 20.3688 0C20.8428 0 21.2332 0.125475 21.5399 0.376425C21.8466 0.627376 22 0.946768 22 1.3346C22 1.72243 21.8466 2.04182 21.5399 2.29278L13.3422 9L21.5399 15.7072C21.8466 15.9582 22 16.2776 22 16.6654C22 17.0532 21.8466 17.3726 21.5399 17.6236C21.2332 17.8745 20.8428 18 20.3688 18C19.8948 18 19.5044 17.8745 19.1977 17.6236L11 10.9163Z" fill="#FFFDFD"/>
</svg>
